<svg width="200" height="160" viewBox="0 0 200 160" xmlns="http://www.w3.org/2000/svg">
  <defs>
    <pattern id="tile-ceo-h" x="0" y="0" width="20" height="20" patternUnits="userSpaceOnUse">
      <rect width="20" height="20" fill="#F5EEDD"/>
      <rect x="0" y="0" width="10" height="10" fill="#ECE0C8"/>
      <rect x="10" y="10" width="10" height="10" fill="#ECE0C8"/>
      <rect x="10" y="0" width="10" height="10" fill="#F8F0E0"/>
      <rect x="0" y="10" width="10" height="10" fill="#F8F0E0"/>
    </pattern>
  </defs>
  <rect width="200" height="160" fill="url(#tile-ceo-h)"/>
  <rect x="0" y="0" width="200" height="36" fill="#EDE0C8"/>
  <rect x="0" y="34" width="200" height="3" fill="#D4C0A0"/>
  <rect x="0" y="8" width="200" height="3" fill="#F0C840" opacity=".6"/>
  <rect x="0" y="16" width="200" height="1.5" fill="#F0C840" opacity=".3"/>
  <rect x="70" y="4" width="60" height="28" fill="#FAF6FF" stroke="#D4B870" stroke-width="2.5"/>
  <rect x="74" y="8" width="52" height="20" fill="#D4EEFF" stroke="#D4B870" stroke-width="1"/>
  <ellipse cx="100" cy="18" rx="16" ry="10" fill="#F7A8C4" opacity=".5"/>
  <ellipse cx="108" cy="14" rx="10" ry="8" fill="#C4B0F0" opacity=".5"/>
  <rect x="78" y="10" width="18" height="14" rx="2" fill="#A8E8D8" opacity=".4"/>
  <rect x="70" y="4" width="6" height="6" fill="#D4B870"/>
  <rect x="124" y="4" width="6" height="6" fill="#D4B870"/>
  <rect x="70" y="26" width="6" height="6" fill="#D4B870"/>
  <rect x="124" y="26" width="6" height="6" fill="#D4B870"/>
  <rect x="18" y="18" width="16" height="14" rx="2" fill="#FFE8A8" stroke="#F0C840" stroke-width="1.5"/>
  <path d="M18 18 Q10 18 10 24 Q10 30 18 30" fill="#FFE8A8" stroke="#F0C840" stroke-width="1.5"/>
  <path d="M34 18 Q42 18 42 24 Q42 30 34 30" fill="#FFE8A8" stroke="#F0C840" stroke-width="1.5"/>
  <rect x="24" y="32" width="4" height="5" fill="#F0C840"/>
  <rect x="20" y="37" width="12" height="4" fill="#F0C840"/>
  <text x="26" y="29" text-anchor="middle" font-size="8" fill="#F0A860">★</text>
  <rect x="44" y="84" width="118" height="54" rx="3" fill="#D4B890"/>
  <rect x="44" y="84" width="118" height="54" rx="3" fill="none" stroke="#A88860" stroke-width="2.5"/>
  <rect x="50" y="88" width="106" height="6" fill="rgba(255,255,255,.25)" rx="1"/>
  <rect x="44" y="84" width="40" height="32" fill="#C8A878" stroke="#A88860" stroke-width="2"/>
  <rect x="96" y="56" width="56" height="38" rx="2" fill="#2A2240"/>
  <rect x="100" y="60" width="48" height="30" fill="#3A3258"/>
  <rect x="104" y="64" width="36" height="2" fill="#C4B0F0" opacity=".7"/>
  <rect x="104" y="70" width="28" height="2" fill="#A8D4F8" opacity=".6"/>
  <rect x="104" y="76" width="32" height="2" fill="#F7A8C4" opacity=".5"/>
  <rect x="104" y="82" width="24" height="2" fill="#C4B0F0" opacity=".4"/>
  <rect x="118" y="92" width="10" height="6" fill="#2A2240"/>
  <rect x="114" y="96" width="18" height="4" fill="#2A2240"/>
  <rect x="80" y="104" width="60" height="20" rx="2" fill="#E8E0F0" stroke="#C4B0F0" stroke-width="1.5"/>
  <rect x="83" y="107" width="54" height="10" fill="none" stroke="#C4B0F0" stroke-width="1" rx="1"/>
  <rect x="98" y="140" width="42" height="18" rx="4" fill="#5C4E7A" stroke="#3C2E5A" stroke-width="1.5"/>
  <rect x="98" y="130" width="42" height="16" rx="3" fill="#6C5E8A" stroke="#3C2E5A" stroke-width="1.5"/>
  <rect x="92" y="132" width="10" height="26" rx="3" fill="#4C3E6A"/>
  <rect x="136" y="132" width="10" height="26" rx="3" fill="#4C3E6A"/>
  <rect x="4" y="104" width="16" height="22" rx="3" fill="#F0A860"/>
  <rect x="8" y="102" width="8" height="6" fill="#5A3820"/>
  <ellipse cx="12" cy="96" rx="14" ry="13" fill="#88B880"/>
  <ellipse cx="5" cy="102" rx="9" ry="7" fill="#A8D8A0"/>
  <ellipse cx="19" cy="101" rx="9" ry="7" fill="#B8D8B0"/>
  <ellipse cx="12" cy="88" rx="8" ry="9" fill="#72A870"/>
  <rect x="0" y="148" width="200" height="12" fill="rgba(240,200,64,.2)"/>
  <text x="100" y="157" text-anchor="middle" font-family="'Press Start 2P', monospace" font-size="6" fill="#A88020">CEO ROOM</text>
</svg>
