<svg width="200" height="160" viewBox="0 0 200 160" xmlns="http://www.w3.org/2000/svg">
  <defs>
    <pattern id="tile-exit" x="0" y="0" width="20" height="20" patternUnits="userSpaceOnUse">
      <rect width="20" height="20" fill="#B8C4C0"/>
      <rect x="0" y="0" width="10" height="10" fill="#C8D4D0"/>
      <rect x="10" y="10" width="10" height="10" fill="#C8D4D0"/>
      <line x1="0" y1="0" x2="0" y2="20" stroke="#A8B4B0" stroke-width="1"/>
      <line x1="0" y1="0" x2="20" y2="0" stroke="#A8B4B0" stroke-width="1"/>
    </pattern>
  </defs>
  <rect width="200" height="160" fill="url(#tile-exit)"/>
  <rect x="0" y="0" width="200" height="36" fill="#B0C0BC"/>
  <rect x="0" y="34" width="200" height="3" fill="#90A0A0"/>
  <rect x="78" y="5" width="44" height="20" fill="#F7A8C4" stroke="#E87FA8" stroke-width="2"/>
  <text x="100" y="19" text-anchor="middle" font-family="'Press Start 2P', monospace" font-size="8" fill="white">EXIT</text>
  <polygon points="72,12 78,8 78,16" fill="#F7A8C4" opacity=".9"/>
  <polygon points="64,12 70,8 70,16" fill="#F7A8C4" opacity=".5"/>
  <polygon points="128,12 122,8 122,16" fill="#F7A8C4" opacity=".9"/>
  <polygon points="136,12 130,8 130,16" fill="#F7A8C4" opacity=".5"/>
  <rect x="60" y="60" width="80" height="88" fill="#EAE4F8" stroke="#8878A8" stroke-width="3"/>
  <rect x="63" y="66" width="34" height="36" fill="#FAF6FF" stroke="#C4B0F0" stroke-width="1.5"/>
  <rect x="63" y="106" width="34" height="38" fill="#FAF6FF" stroke="#C4B0F0" stroke-width="1.5"/>
  <rect x="101" y="66" width="35" height="36" fill="#FAF6FF" stroke="#C4B0F0" stroke-width="1.5"/>
  <rect x="101" y="106" width="35" height="38" fill="#FAF6FF" stroke="#C4B0F0" stroke-width="1.5"/>
  <rect x="94" y="99" width="12" height="4" rx="2" fill="#F0C840" stroke="#D4A820" stroke-width="1"/>
  <circle cx="98" cy="101" r="3" fill="#F0C840" stroke="#D4A820" stroke-width="1"/>
  <line x1="100" y1="60" x2="100" y2="148" stroke="#8878A8" stroke-width="2"/>
  <rect x="66" y="68" width="28" height="16" rx="1" fill="#D8EEFF" opacity=".7" stroke="#A8D4F8" stroke-width="1"/>
  <rect x="104" y="68" width="28" height="16" rx="1" fill="#D8EEFF" opacity=".7" stroke="#A8D4F8" stroke-width="1"/>
  <ellipse cx="36" cy="138" rx="10" ry="6" fill="#D0C8E0" stroke="#B0A8C8" stroke-width="1.5"/>
  <rect x="30" y="100" width="12" height="38" rx="4" fill="#D4C8F0" stroke="#A8A0C8" stroke-width="1.5"/>
  <rect x="33" y="88" width="3" height="40" rx="1" fill="#F7A8C4"/>
  <ellipse cx="34.5" cy="87" rx="6" ry="4" fill="#F7A8C4" stroke="#E87FA8" stroke-width="1"/>
  <rect x="39" y="85" width="3" height="42" rx="1" fill="#A8D4F8"/>
  <ellipse cx="40.5" cy="84" rx="6" ry="4" fill="#A8D4F8" stroke="#70B0F0" stroke-width="1"/>
  <rect x="50" y="148" width="100" height="12" rx="2" fill="#C4B0F0" stroke="#9878D8" stroke-width="1.5"/>
  <text x="100" y="157.5" text-anchor="middle" font-family="'Press Start 2P', monospace" font-size="4.5" fill="white">WELCOME</text>
  <rect x="0" y="148" width="50" height="12" fill="rgba(184,196,192,.5)"/>
  <text x="25" y="157" text-anchor="middle" font-family="'Press Start 2P', monospace" font-size="5" fill="#5A7070">EXIT</text>
</svg>
