<svg width="200" height="160" viewBox="0 0 200 160" xmlns="http://www.w3.org/2000/svg">
  <defs>
    <pattern id="tile-lounge" x="0" y="0" width="16" height="16" patternUnits="userSpaceOnUse">
      <rect width="16" height="16" fill="#DDEEDD"/>
      <circle cx="8" cy="8" r="3" fill="#C8E8C8" opacity=".5"/>
    </pattern>
  </defs>
  <rect width="200" height="160" fill="url(#tile-lounge)"/>
  <rect x="0" y="0" width="200" height="36" fill="#D4EED4"/>
  <rect x="0" y="34" width="200" height="3" fill="#B8D8B0"/>
  <rect x="8" y="8" width="4" height="12" fill="#88B880"/>
  <ellipse cx="10" cy="7" rx="8" ry="7" fill="#A8D8A0"/>
  <ellipse cx="6" cy="10" rx="6" ry="5" fill="#B8D8B0"/>
  <rect x="168" y="8" width="4" height="12" fill="#88B880"/>
  <ellipse cx="170" cy="7" rx="8" ry="7" fill="#A8D8A0"/>
  <ellipse cx="174" cy="10" rx="6" ry="5" fill="#B8D8B0"/>
  <ellipse cx="100" cy="110" rx="68" ry="38" fill="#F7A8C4" opacity=".35"/>
  <ellipse cx="100" cy="110" rx="60" ry="32" fill="none" stroke="#E87FA8" stroke-width="2" opacity=".4"/>
  <ellipse cx="100" cy="110" rx="52" ry="26" fill="none" stroke="#E87FA8" stroke-width="1" opacity=".25"/>
  <rect x="28" y="88" width="144" height="44" rx="6" fill="#C4B0F0"/>
  <rect x="28" y="88" width="144" height="44" rx="6" fill="none" stroke="#9878D8" stroke-width="2"/>
  <rect x="28" y="78" width="144" height="18" rx="4" fill="#D4C4FF"/>
  <rect x="28" y="78" width="144" height="18" rx="4" fill="none" stroke="#9878D8" stroke-width="2"/>
  <rect x="22" y="80" width="14" height="48" rx="4" fill="#B8A0E8"/>
  <rect x="22" y="80" width="14" height="48" rx="4" fill="none" stroke="#9878D8" stroke-width="1.5"/>
  <rect x="164" y="80" width="14" height="48" rx="4" fill="#B8A0E8"/>
  <rect x="164" y="80" width="14" height="48" rx="4" fill="none" stroke="#9878D8" stroke-width="1.5"/>
  <line x1="88" y1="88" x2="88" y2="132" stroke="#9878D8" stroke-width="2"/>
  <line x1="112" y1="88" x2="112" y2="132" stroke="#9878D8" stroke-width="2"/>
  <rect x="36" y="92" width="44" height="8" rx="2" fill="rgba(255,255,255,.2)"/>
  <rect x="96" y="92" width="36" height="8" rx="2" fill="rgba(255,255,255,.2)"/>
  <rect x="120" y="92" width="36" height="8" rx="2" fill="rgba(255,255,255,.2)"/>
  <rect x="62" y="136" width="76" height="18" rx="3" fill="#F7C8A0" stroke="#D4956A" stroke-width="1.5"/>
  <rect x="72" y="139" width="14" height="10" rx="1" fill="#FFF0DC" stroke="#F0A860" stroke-width="1"/>
  <circle cx="112" cy="144" r="6" fill="#A8D4F8" stroke="#70B0F0" stroke-width="1.5"/>
  <rect x="110" y="137" width="4" height="5" rx="1" fill="#70B0F0"/>
  <rect x="3" y="104" width="12" height="18" rx="2" fill="#F0A860"/>
  <rect x="5" y="102" width="8" height="6" fill="#5A3A20"/>
  <ellipse cx="9" cy="100" rx="9" ry="8" fill="#88B880"/>
  <ellipse cx="5" cy="104" rx="6" ry="5" fill="#A8D8A0"/>
  <ellipse cx="13" cy="103" rx="6" ry="5" fill="#B8E8B0"/>
  <rect x="0" y="148" width="200" height="12" fill="rgba(184,216,176,.3)"/>
  <text x="100" y="157" text-anchor="middle" font-family="'Press Start 2P', monospace" font-size="6" fill="#5A8850">LOUNGE</text>
</svg>
