<svg width="200" height="160" viewBox="0 0 200 160" xmlns="http://www.w3.org/2000/svg">
  <defs>
    <pattern id="tile-meeting" x="0" y="0" width="20" height="20" patternUnits="userSpaceOnUse">
      <rect width="20" height="20" fill="#F0E0E8"/>
      <rect x="0" y="0" width="10" height="10" fill="#F8EEF4" opacity=".6"/>
      <rect x="10" y="10" width="10" height="10" fill="#F8EEF4" opacity=".6"/>
      <line x1="0" y1="0" x2="0" y2="20" stroke="#E8D0DC" stroke-width="1"/>
      <line x1="0" y1="0" x2="20" y2="0" stroke="#E8D0DC" stroke-width="1"/>
    </pattern>
  </defs>
  <rect width="200" height="160" fill="url(#tile-meeting)"/>
  <rect x="0" y="0" width="200" height="36" fill="#EDD8E8"/>
  <rect x="0" y="34" width="200" height="3" fill="#D8B8D0"/>
  <rect x="0" y="10" width="200" height="4" fill="#F7A8C4" opacity=".5"/>
  <rect x="0" y="18" width="200" height="2" fill="#C4B0F0" opacity=".4"/>
  <rect x="86" y="4" width="28" height="28" rx="14" fill="#FAF6FF"/>
  <rect x="88" y="6" width="24" height="24" rx="12" fill="#FDD5E5"/>
  <rect x="86" y="4" width="28" height="28" rx="14" fill="none" stroke="#E87FA8" stroke-width="2"/>
  <line x1="100" y1="18" x2="100" y2="11" stroke="#8878A8" stroke-width="2"/>
  <line x1="100" y1="18" x2="106" y2="20" stroke="#8878A8" stroke-width="1.5"/>
  <rect x="99" y="17" width="2" height="2" fill="#5C4E7A"/>
  <ellipse cx="100" cy="105" rx="64" ry="30" fill="#F7C8A0"/>
  <ellipse cx="100" cy="105" rx="64" ry="30" fill="none" stroke="#D4956A" stroke-width="2"/>
  <ellipse cx="88" cy="97" rx="18" ry="8" fill="rgba(255,255,255,.3)"/>
  <rect x="82" y="97" width="20" height="14" rx="1" fill="#FFF0DC" stroke="#F0A860" stroke-width="1" transform="rotate(-8,92,104)"/>
  <line x1="85" y1="101" x2="98" y2="99" stroke="#D4C0A0" stroke-width="1"/>
  <line x1="85" y1="104" x2="98" y2="102" stroke="#D4C0A0" stroke-width="1"/>
  <rect x="110" y="99" width="12" height="14" rx="2" fill="#A8D4F8" stroke="#70B0F0" stroke-width="1.5"/>
  <path d="M122 103 Q128 103 128 108 Q128 113 122 113" fill="none" stroke="#70B0F0" stroke-width="1.5"/>
  <path d="M114 97 Q116 93 114 89" fill="none" stroke="#C4B0F0" stroke-width="1" opacity=".6"/>
  <path d="M118 96 Q120 92 118 88" fill="none" stroke="#C4B0F0" stroke-width="1" opacity=".5"/>
  <rect x="72" y="68" width="18" height="10" rx="2" fill="#C4B0F0" stroke="#9878D8" stroke-width="1.5"/>
  <rect x="102" y="68" width="18" height="10" rx="2" fill="#C4B0F0" stroke="#9878D8" stroke-width="1.5"/>
  <rect x="72" y="132" width="18" height="10" rx="2" fill="#C4B0F0" stroke="#9878D8" stroke-width="1.5"/>
  <rect x="102" y="132" width="18" height="10" rx="2" fill="#C4B0F0" stroke="#9878D8" stroke-width="1.5"/>
  <rect x="30" y="99" width="10" height="14" rx="2" fill="#C4B0F0" stroke="#9878D8" stroke-width="1.5"/>
  <rect x="160" y="99" width="10" height="14" rx="2" fill="#C4B0F0" stroke="#9878D8" stroke-width="1.5"/>
  <rect x="140" y="4" width="50" height="28" fill="#FAF6FF" stroke="#8878A8" stroke-width="2"/>
  <line x1="145" y1="11" x2="186" y2="11" stroke="#C4B0F0" stroke-width="1.5"/>
  <line x1="145" y1="16" x2="178" y2="16" stroke="#A8D4F8" stroke-width="1.5"/>
  <line x1="145" y1="21" x2="183" y2="21" stroke="#F7A8C4" stroke-width="1.5"/>
  <rect x="140" y="30" width="50" height="4" fill="#D8C8E8" stroke="#8878A8" stroke-width="1"/>
  <rect x="145" y="30" width="10" height="3" rx="1" fill="#F7A8C4"/>
  <rect x="158" y="30" width="10" height="3" rx="1" fill="#A8E8D8"/>
  <rect x="0" y="148" width="200" height="12" fill="rgba(200,176,240,.3)"/>
  <text x="100" y="157" text-anchor="middle" font-family="'Press Start 2P', monospace" font-size="6" fill="#9878D8">MEETING ROOM</text>
</svg>
