<svg width="200" height="160" viewBox="0 0 200 160" xmlns="http://www.w3.org/2000/svg">
  <defs>
    <pattern id="tile-qa" x="0" y="0" width="16" height="16" patternUnits="userSpaceOnUse">
      <rect width="16" height="16" fill="#E8F0F8"/>
      <line x1="0" y1="0" x2="16" y2="0" stroke="#D0E0F0" stroke-width="1"/>
      <line x1="0" y1="0" x2="0" y2="16" stroke="#D0E0F0" stroke-width="1"/>
    </pattern>
  </defs>
  <rect width="200" height="160" fill="url(#tile-qa)"/>
  <rect x="0" y="0" width="200" height="36" fill="#D8E8F8"/>
  <rect x="0" y="34" width="200" height="3" fill="#B0C8E8"/>
  <rect x="10" y="8" width="40" height="2" fill="#A8D4F8" opacity=".6"/>
  <rect x="10" y="8" width="2" height="12" fill="#A8D4F8" opacity=".6"/>
  <circle cx="12" cy="22" r="4" fill="none" stroke="#A8D4F8" stroke-width="1.5" opacity=".6"/>
  <rect x="50" y="8" width="30" height="2" fill="#C4B0F0" opacity=".5"/>
  <rect x="78" y="8" width="2" height="10" fill="#C4B0F0" opacity=".5"/>
  <circle cx="80" cy="20" r="3" fill="none" stroke="#C4B0F0" stroke-width="1.5" opacity=".5"/>
  <text x="160" y="26" font-size="18" opacity=".3">🐛</text>
  <rect x="14" y="60" width="80" height="34" rx="2" fill="#C8D8E8" stroke="#8878A8" stroke-width="2"/>
  <rect x="16" y="62" width="76" height="28" fill="none" stroke="rgba(255,255,255,.3)" stroke-width="1"/>
  <rect x="24" y="42" width="44" height="28" rx="2" fill="#2A2240"/>
  <rect x="28" y="46" width="36" height="20" fill="#1A3A5A"/>
  <rect x="30" y="49" width="6" height="2" fill="#72C8B4"/>
  <rect x="38" y="49" width="20" height="2" fill="#72C8B4" opacity=".5"/>
  <rect x="30" y="53" width="24" height="2" fill="#72C8B4" opacity=".4"/>
  <rect x="30" y="57" width="14" height="2" fill="#72C8B4" opacity=".6"/>
  <rect x="46" y="57" width="2" height="4" fill="#72C8B4" opacity=".8"/>
  <rect x="40" y="68" width="6" height="4" fill="#3A3258"/>
  <rect x="36" y="72" width="14" height="2" fill="#3A3258"/>
  <rect x="104" y="60" width="80" height="34" rx="2" fill="#C8D8E8" stroke="#8878A8" stroke-width="2"/>
  <rect x="120" y="42" width="44" height="28" rx="2" fill="#2A2240"/>
  <rect x="124" y="46" width="36" height="20" fill="#1A2A4A"/>
  <rect x="127" y="62" width="4" height="2" fill="#F7A8C4"/>
  <rect x="133" y="56" width="4" height="8" fill="#F7A8C4"/>
  <rect x="139" y="53" width="4" height="11" fill="#A8D4F8"/>
  <rect x="145" y="58" width="4" height="6" fill="#C4B0F0"/>
  <rect x="151" y="50" width="4" height="14" fill="#A8E8D8"/>
  <rect x="126" y="64" width="30" height="1" fill="#8878A8" opacity=".5"/>
  <rect x="136" y="70" width="6" height="4" fill="#3A3258"/>
  <rect x="132" y="74" width="14" height="2" fill="#3A3258"/>
  <rect x="32" y="96" width="28" height="14" rx="2" fill="#9878D8" stroke="#7858B8" stroke-width="1.5"/>
  <rect x="124" y="96" width="28" height="14" rx="2" fill="#9878D8" stroke="#7858B8" stroke-width="1.5"/>
  <rect x="4" y="108" width="40" height="36" fill="#FAF6FF" stroke="#C4B0F0" stroke-width="2"/>
  <rect x="7" y="112" width="15" height="12" rx="1" fill="#FFE8A8"/>
  <rect x="24" y="112" width="15" height="12" rx="1" fill="#F7A8C4"/>
  <rect x="7" y="126" width="15" height="14" rx="1" fill="#A8E8D8"/>
  <rect x="24" y="126" width="15" height="14" rx="1" fill="#C4B0F0"/>
  <rect x="4" y="108" width="40" height="8" fill="#C4B0F0"/>
  <text x="24" y="114.5" text-anchor="middle" font-family="'Press Start 2P', monospace" font-size="4.5" fill="white">BUGS</text>
  <rect x="0" y="148" width="200" height="12" fill="rgba(168,212,248,.3)"/>
  <text x="100" y="157" text-anchor="middle" font-family="'Press Start 2P', monospace" font-size="6" fill="#5080B8">QA ROOM</text>
</svg>
