<svg width="200" height="160" viewBox="0 0 200 160" xmlns="http://www.w3.org/2000/svg">
  <defs>
    <pattern id="tile-storage" x="0" y="0" width="12" height="12" patternUnits="userSpaceOnUse">
      <rect width="12" height="12" fill="#E8E4DC"/>
      <rect x="0" y="0" width="6" height="6" fill="#E0DCD0" opacity=".7"/>
      <rect x="6" y="6" width="6" height="6" fill="#E0DCD0" opacity=".7"/>
    </pattern>
  </defs>
  <rect width="200" height="160" fill="url(#tile-storage)"/>
  <rect x="0" y="0" width="200" height="36" fill="#D8D0C0"/>
  <rect x="0" y="34" width="200" height="3" fill="#B8B0A0"/>
  <rect x="8" y="36" width="56" height="92" fill="#D4C8A8" stroke="#A89870" stroke-width="2"/>
  <rect x="8" y="56" width="56" height="3" fill="#B8A880"/>
  <rect x="8" y="79" width="56" height="3" fill="#B8A880"/>
  <rect x="8" y="100" width="56" height="3" fill="#B8A880"/>
  <rect x="12" y="40" width="18" height="14" rx="1" fill="#F7A8C4" stroke="#E87FA8" stroke-width="1"/>
  <rect x="34" y="40" width="24" height="14" rx="1" fill="#A8D4F8" stroke="#70B0F0" stroke-width="1"/>
  <rect x="12" y="60" width="14" height="16" rx="1" fill="#FFE8A8" stroke="#F0C840" stroke-width="1"/>
  <rect x="30" y="60" width="30" height="16" rx="1" fill="#A8E8D8" stroke="#72C8B4" stroke-width="1"/>
  <rect x="12" y="83" width="20" height="14" rx="1" fill="#C4B0F0" stroke="#9878D8" stroke-width="1"/>
  <rect x="36" y="83" width="22" height="14" rx="1" fill="#F7A8C4" stroke="#E87FA8" stroke-width="1"/>
  <rect x="12" y="106" width="28" height="14" rx="1" fill="#FFD4A8" stroke="#F0A860" stroke-width="1"/>
  <rect x="44" y="106" width="14" height="14" rx="1" fill="#B8D8B0" stroke="#88B880" stroke-width="1"/>
  <rect x="136" y="36" width="56" height="92" fill="#D4C8A8" stroke="#A89870" stroke-width="2"/>
  <rect x="136" y="56" width="56" height="3" fill="#B8A880"/>
  <rect x="136" y="79" width="56" height="3" fill="#B8A880"/>
  <rect x="136" y="100" width="56" height="3" fill="#B8A880"/>
  <rect x="140" y="40" width="22" height="14" rx="1" fill="#C4B0F0" stroke="#9878D8" stroke-width="1"/>
  <rect x="166" y="40" width="20" height="14" rx="1" fill="#A8E8D8" stroke="#72C8B4" stroke-width="1"/>
  <rect x="140" y="60" width="30" height="16" rx="1" fill="#FFE8A8" stroke="#F0C840" stroke-width="1"/>
  <rect x="174" y="60" width="14" height="16" rx="1" fill="#F7A8C4" stroke="#E87FA8" stroke-width="1"/>
  <rect x="140" y="83" width="18" height="14" rx="1" fill="#A8D4F8" stroke="#70B0F0" stroke-width="1"/>
  <rect x="162" y="83" width="26" height="14" rx="1" fill="#FFD4A8" stroke="#F0A860" stroke-width="1"/>
  <rect x="140" y="106" width="40" height="14" rx="1" fill="#B8D8B0" stroke="#88B880" stroke-width="1"/>
  <rect x="84" y="98" width="30" height="28" rx="1" fill="#F7A8C4" stroke="#E87FA8" stroke-width="1.5"/>
  <rect x="84" y="74" width="30" height="22" rx="1" fill="#FFE8A8" stroke="#F0C840" stroke-width="1.5"/>
  <line x1="84" y1="109" x2="114" y2="109" stroke="#E87FA8" stroke-width="1.5"/>
  <line x1="99" y1="98" x2="99" y2="126" stroke="#E87FA8" stroke-width="1.5"/>
  <line x1="84" y1="85" x2="114" y2="85" stroke="#F0C840" stroke-width="1.5"/>
  <line x1="99" y1="74" x2="99" y2="96" stroke="#F0C840" stroke-width="1.5"/>
  <rect x="0" y="148" width="200" height="12" fill="rgba(216,208,192,.4)"/>
  <text x="100" y="157" text-anchor="middle" font-family="'Press Start 2P', monospace" font-size="6" fill="#7A7060">STORAGE</text>
</svg>
