<svg width="52" height="80" viewBox="0 0 52 80" xmlns="http://www.w3.org/2000/svg">
  <rect x="6" y="16" width="40" height="60" rx="3" fill="#C4B0F0" stroke="#8878A8" stroke-width="2.5"/>
  <rect x="6" y="8" width="40" height="12" rx="6" fill="#D4C4FF" stroke="#8878A8" stroke-width="2"/>
  <rect x="10" y="18" width="32" height="28" rx="2" fill="#1A1830" stroke="#3A3258" stroke-width="1.5"/>
  <rect x="13" y="21" width="26" height="22" fill="#0A0818"/>
  <text x="26" y="30" text-anchor="middle" font-family="'Press Start 2P', monospace" font-size="4" fill="#F7A8C4">PLAY</text>
  <text x="26" y="38" text-anchor="middle" font-family="'Press Start 2P', monospace" font-size="3" fill="#72C8B4">PIX</text>
  <rect x="8" y="8" width="36" height="8" fill="#9878D8"/>
  <text x="26" y="14" text-anchor="middle" font-family="'Press Start 2P', monospace" font-size="4" fill="white">PIXEL</text>
  <rect x="10" y="48" width="32" height="22" rx="2" fill="#B8A8E0" stroke="#8878A8" stroke-width="1.5"/>
  <circle cx="20" cy="58" r="6" fill="#8878A8"/>
  <circle cx="20" cy="55" r="4" fill="#5C4E7A"/>
  <circle cx="34" cy="54" r="4" fill="#F7A8C4" stroke="#E87FA8" stroke-width="1"/>
  <circle cx="40" cy="60" r="4" fill="#A8E8D8" stroke="#72C8B4" stroke-width="1"/>
  <circle cx="34" cy="66" r="4" fill="#FFE8A8" stroke="#F0C840" stroke-width="1"/>
  <rect x="18" y="68" width="16" height="3" rx="1" fill="#8878A8"/>
  <rect x="4" y="72" width="44" height="8" rx="2" fill="#9878D8" stroke="#8878A8" stroke-width="1.5"/>
</svg>
