<svg width="110" height="65" viewBox="0 0 110 65" xmlns="http://www.w3.org/2000/svg">
  <rect x="2" y="4" width="50" height="36" rx="2" fill="#2A2240" stroke="#72C8B4" stroke-width="1.5"/>
  <rect x="5" y="7" width="44" height="28" fill="#0A3040"/>
  <rect x="7" y="10" width="24" height="2" fill="#72C8B4" opacity=".7"/>
  <rect x="7" y="15" width="18" height="2" fill="#72C8B4" opacity=".45"/>
  <rect x="7" y="20" width="28" height="2" fill="#72C8B4" opacity=".35"/>
  <rect x="7" y="25" width="14" height="2" fill="#72C8B4" opacity=".55"/>
  <rect x="20" y="40" width="14" height="5" fill="#1A1A30"/>
  <rect x="15" y="45" width="22" height="3" fill="#1A1A30"/>
  <rect x="58" y="4" width="50" height="36" rx="2" fill="#2A2240" stroke="#C4B0F0" stroke-width="1.5"/>
  <rect x="61" y="7" width="44" height="28" fill="#180D30"/>
  <rect x="63" y="10" width="28" height="2" fill="#C4B0F0" opacity=".7"/>
  <rect x="63" y="15" width="20" height="2" fill="#C4B0F0" opacity=".45"/>
  <rect x="63" y="20" width="34" height="2" fill="#C4B0F0" opacity=".35"/>
  <rect x="63" y="25" width="16" height="2" fill="#C4B0F0" opacity=".55"/>
  <rect x="76" y="40" width="14" height="5" fill="#1A1A30"/>
  <rect x="71" y="45" width="22" height="3" fill="#1A1A30"/>
</svg>
