<svg width="110" height="70" viewBox="0 0 110 70" xmlns="http://www.w3.org/2000/svg">
  <rect x="4" y="4" width="70" height="38" rx="2" fill="#D4B890" stroke="#A88860" stroke-width="2"/>
  <rect x="4" y="30" width="38" height="30" rx="2" fill="#C8A878" stroke="#A88860" stroke-width="2"/>
  <rect x="6" y="6" width="66" height="34" fill="none" stroke="rgba(255,255,255,.2)" stroke-width="1"/>
  <rect x="10" y="7" width="36" height="24" rx="1" fill="#2A2240" stroke="#3A3258" stroke-width="1"/>
  <rect x="13" y="10" width="30" height="18" fill="#1A1A30"/>
  <rect x="15" y="12" width="18" height="2" fill="#F7A8C4" opacity=".7"/>
  <rect x="15" y="16" width="22" height="2" fill="#F7A8C4" opacity=".4"/>
  <rect x="15" y="20" width="14" height="2" fill="#F7A8C4" opacity=".5"/>
  <rect x="52" y="7" width="17" height="24" rx="1" fill="#2A2240" stroke="#3A3258" stroke-width="1"/>
  <rect x="54" y="10" width="13" height="18" fill="#1A3040"/>
  <rect x="55" y="13" width="10" height="2" fill="#A8D4F8" opacity=".6"/>
  <rect x="55" y="17" width="8" height="2" fill="#A8D4F8" opacity=".4"/>
  <rect x="55" y="21" width="10" height="2" fill="#A8D4F8" opacity=".5"/>
  <rect x="6" y="32" width="34" height="10" rx="1" fill="#E0D8F0" stroke="#C4B0F0" stroke-width="1"/>
  <rect x="7" y="34" width="12" height="16" rx="1" fill="#FFF0DC" stroke="#F0A860" stroke-width="1"/>
  <rect x="9" y="36" width="8" height="2" fill="#D4A860" opacity=".5"/>
  <rect x="9" y="40" width="8" height="2" fill="#D4A860" opacity=".4"/>
  <rect x="4" y="58" width="6" height="10" fill="#A88860" stroke="#906848" stroke-width="1"/>
  <rect x="36" y="58" width="6" height="10" fill="#A88860" stroke="#906848" stroke-width="1"/>
  <rect x="76" y="8" width="6" height="54" fill="#A88860" stroke="#906848" stroke-width="1"/>
</svg>
