<svg width="60" height="60" viewBox="0 0 60 60" xmlns="http://www.w3.org/2000/svg">
  <rect x="6" y="18" width="32" height="30" rx="2" fill="#C4B0F0" stroke="#8878A8" stroke-width="2"/>
  <rect x="6" y="10" width="32" height="12" rx="8" fill="#D4C4FF" stroke="#8878A8" stroke-width="2"/>
  <rect x="6" y="17" width="32" height="5" fill="#D4C4FF"/>
  <rect x="12" y="22" width="20" height="4" rx="1" fill="#8878A8"/>
  <rect x="14" y="18" width="16" height="8" rx="1" fill="#FAF6FF" stroke="#C4B0F0" stroke-width="1"/>
  <rect x="16" y="20" width="12" height="2" fill="#F7A8C4" opacity=".6"/>
  <rect x="20" y="48" width="4" height="12" rx="1" fill="#9878D8"/>
  <rect x="14" y="58" width="16" height="4" rx="2" fill="#8878A8"/>
  <rect x="40" y="32" width="18" height="18" rx="2" fill="#FFE8A8" stroke="#F0C840" stroke-width="2"/>
  <line x1="49" y1="32" x2="49" y2="50" stroke="#F0C840" stroke-width="1.5"/>
  <line x1="40" y1="41" x2="58" y2="41" stroke="#F0C840" stroke-width="1.5"/>
  <rect x="40" y="32" width="18" height="6" rx="2" fill="#F0C840" opacity=".5"/>
  <rect x="48" y="34" width="8" height="6" rx="1" fill="#F7A8C4" stroke="#E87FA8" stroke-width="1"/>
</svg>
