<svg width="54" height="70" viewBox="0 0 54 70" xmlns="http://www.w3.org/2000/svg">
  <rect x="19" y="48" width="16" height="18" rx="3" fill="#F0A860" stroke="#D08840" stroke-width="2"/>
  <rect x="17" y="46" width="20" height="6" rx="2" fill="#FFD4A8" stroke="#D08840" stroke-width="1.5"/>
  <rect x="21" y="48" width="6" height="6" fill="#5A3A20" opacity=".4"/>
  <line x1="27" y1="46" x2="20" y2="20" stroke="#5A8840" stroke-width="2"/>
  <line x1="27" y1="46" x2="36" y2="18" stroke="#5A8840" stroke-width="2"/>
  <line x1="27" y1="46" x2="14" y2="30" stroke="#5A8840" stroke-width="1.5"/>
  <ellipse cx="18" cy="16" rx="14" ry="10" fill="#72A860"/>
  <ellipse cx="18" cy="16" rx="10" ry="7" fill="#88C878"/>
  <ellipse cx="14" cy="14" rx="4" ry="3" fill="#72A860"/>
  <ellipse cx="22" cy="12" rx="3" ry="2" fill="#72A860"/>
  <line x1="18" y1="24" x2="18" y2="8" stroke="#5A8840" stroke-width="1"/>
  <ellipse cx="38" cy="14" rx="12" ry="9" fill="#5A9848"/>
  <ellipse cx="38" cy="14" rx="8" ry="6" fill="#72B860"/>
  <ellipse cx="35" cy="12" rx="3" ry="2" fill="#5A9848"/>
  <line x1="38" y1="22" x2="38" y2="6" stroke="#4A8038" stroke-width="1"/>
  <ellipse cx="12" cy="28" rx="8" ry="6" fill="#88C878"/>
</svg>
