<svg width="70" height="65" viewBox="0 0 70 65" xmlns="http://www.w3.org/2000/svg">
  <rect x="8" y="10" width="52" height="6" rx="2" fill="#D4B890" stroke="#A88860" stroke-width="1.5"/>
  <rect x="8" y="32" width="52" height="6" rx="2" fill="#D4B890" stroke="#A88860" stroke-width="1.5"/>
  <rect x="8" y="52" width="52" height="6" rx="2" fill="#D4B890" stroke="#A88860" stroke-width="1.5"/>
  <rect x="8" y="8" width="5" height="52" rx="2" fill="#C4B0F0" stroke="#9878D8" stroke-width="1.5"/>
  <rect x="57" y="8" width="5" height="52" rx="2" fill="#C4B0F0" stroke="#9878D8" stroke-width="1.5"/>
  <rect x="6" y="4" width="58" height="8" rx="3" fill="#B8A0E8" stroke="#9878D8" stroke-width="1.5"/>
  <rect x="12" y="12" width="18" height="18" rx="1" fill="#F7A8C4" stroke="#E87FA8" stroke-width="1"/>
  <rect x="34" y="12" width="22" height="18" rx="1" fill="#A8E8D8" stroke="#72C8B4" stroke-width="1"/>
  <rect x="12" y="38" width="14" height="12" rx="1" fill="#FFE8A8" stroke="#F0C840" stroke-width="1"/>
  <rect x="30" y="38" width="26" height="12" rx="1" fill="#A8D4F8" stroke="#70B0F0" stroke-width="1"/>
  <circle cx="16" cy="60" r="5" fill="#8878A8" stroke="#5C4E7A" stroke-width="1.5"/>
  <circle cx="16" cy="60" r="2" fill="#C4B0F0"/>
  <circle cx="54" cy="60" r="5" fill="#8878A8" stroke="#5C4E7A" stroke-width="1.5"/>
  <circle cx="54" cy="60" r="2" fill="#C4B0F0"/>
</svg>
