<svg width="80" height="64" viewBox="0 0 80 64" xmlns="http://www.w3.org/2000/svg">
  <defs><marker id="arr" viewBox="0 0 6 6" refX="5" refY="3" markerWidth="4" markerHeight="4" orient="auto"><path d="M0 0L6 3L0 6Z" fill="#8878A8"/></marker></defs>
  <rect x="4" y="4" width="72" height="50" fill="#FAF6FF" stroke="#8878A8" stroke-width="3"/>
  <rect x="10" y="10" width="40" height="4" rx="1" fill="#C4B0F0" opacity=".6"/>
  <rect x="10" y="18" width="28" height="3" rx="1" fill="#F7A8C4" opacity=".6"/>
  <rect x="10" y="25" width="50" height="3" rx="1" fill="#A8E8D8" opacity=".6"/>
  <rect x="10" y="32" width="18" height="12" rx="2" fill="#FFE8A8" stroke="#F0C840" stroke-width="1.5"/>
  <text x="19" y="40" text-anchor="middle" font-family="'Press Start 2P', monospace" font-size="4" fill="#8878A8">PLAN</text>
  <line x1="28" y1="38" x2="36" y2="38" stroke="#8878A8" stroke-width="1.5" marker-end="url(#arr)"/>
  <rect x="36" y="32" width="18" height="12" rx="2" fill="#A8E8D8" stroke="#72C8B4" stroke-width="1.5"/>
  <text x="45" y="40" text-anchor="middle" font-family="'Press Start 2P', monospace" font-size="4" fill="#8878A8">DO</text>
  <line x1="54" y1="38" x2="62" y2="38" stroke="#8878A8" stroke-width="1.5"/>
  <rect x="54" y="32" width="18" height="12" rx="2" fill="#F7A8C4" stroke="#E87FA8" stroke-width="1.5"/>
  <text x="63" y="40" text-anchor="middle" font-family="'Press Start 2P', monospace" font-size="4" fill="#8878A8">DONE</text>
  <rect x="4" y="54" width="72" height="8" fill="#D4C8E8" stroke="#8878A8" stroke-width="2"/>
  <rect x="10" y="55" width="12" height="5" rx="1" fill="#F7A8C4"/>
  <rect x="25" y="55" width="12" height="5" rx="1" fill="#A8E8D8"/>
  <rect x="40" y="55" width="12" height="5" rx="1" fill="#FFE8A8"/>
</svg>
